<?xml version="1.0" encoding="UTF-8" standalone="no"?>
<!-- Generator: Adobe Illustrator 19.2.0, SVG Export Plug-In . SVG Version: 6.00 Build 0)  -->

<svg
   version="1.1"
   x="0px"
   y="0px"
   viewBox="0 0 70.867 82.303"
   style="enable-background:new 0 0 70.867 82.303;"
   xml:space="preserve"
   id="svg11442"
   sodipodi:docname="bundespreis_gute_form_logo.svg"
   inkscape:version="1.2.1 (9c6d41e410, 2022-07-14)"
   inkscape:export-filename="bundespreis_gute_form_logo.png"
   inkscape:export-xdpi="82.815933"
   inkscape:export-ydpi="82.815933"
   xmlns:inkscape="http://www.inkscape.org/namespaces/inkscape"
   xmlns:sodipodi="http://sodipodi.sourceforge.net/DTD/sodipodi-0.dtd"
   xmlns:xlink="http://www.w3.org/1999/xlink"
   xmlns="http://www.w3.org/2000/svg"
   xmlns:svg="http://www.w3.org/2000/svg"><defs
   id="defs11446"><linearGradient
     inkscape:collect="always"
     id="linearGradient12041"><stop
       style="stop-color:#095dd2;stop-opacity:1;"
       offset="1"
       id="stop12037" /><stop
       style="stop-color:#095dd2;stop-opacity:0;"
       offset="1"
       id="stop12039" /></linearGradient><linearGradient
     id="linearGradient12011"
     inkscape:swatch="gradient"><stop
       style="stop-color:#095dd2;stop-opacity:1;"
       offset="0"
       id="stop12007" /><stop
       style="stop-color:#095dd2;stop-opacity:0;"
       offset="1"
       id="stop12009" /></linearGradient><linearGradient
     inkscape:collect="always"
     xlink:href="#linearGradient12041"
     id="linearGradient12049"
     x1="0.24041773"
     y1="41.151001"
     x2="71.10585"
     y2="41.151001"
     gradientUnits="userSpaceOnUse" /></defs><sodipodi:namedview
   id="namedview11444"
   pagecolor="#ffffff"
   bordercolor="#000000"
   borderopacity="0.25"
   inkscape:showpageshadow="2"
   inkscape:pageopacity="0.0"
   inkscape:pagecheckerboard="0"
   inkscape:deskcolor="#d1d1d1"
   showgrid="false"
   inkscape:zoom="12.478281"
   inkscape:cx="17.99126"
   inkscape:cy="39.268229"
   inkscape:window-width="2560"
   inkscape:window-height="1369"
   inkscape:window-x="-8"
   inkscape:window-y="-8"
   inkscape:window-maximized="1"
   inkscape:current-layer="bundespreis_x5F_gute_x5F_form" />
<g
   id="bundespreis_x5F_gute_x5F_form"
   style="fill-opacity:1;fill:#0a6bf2">
	<path
   style="clip-rule:evenodd;fill:#0a6bf2;fill-opacity:1;fill-rule:evenodd;stroke-width:0.927771"
   d="m 35.383419,7.9337848 c 0.615,0.00515 1.64,0.6042525 2.441,0.9881496 3.772,1.8084526 7.354,3.7047026 11.107,5.5226226 1.508,0.729924 2.913,1.552806 4.357,2.267237 5.271,2.603791 10.347,5.088801 15.465,7.788996 0.722,0.380457 1.594,0.574126 2.154,1.153417 0.167,7.35001 0.097,14.681085 0.096,22.254892 0,3.808853 0.049,7.014314 0.048,11.044385 0,0.744554 0.15,1.711185 -0.048,2.183741 -0.19,0.45534 -1.432,0.855594 -2.106,1.195593 -5.13,2.581412 -10.382,5.228243 -15.561,7.66591 -1.5,0.704959 -2.917,1.510628 -4.405,2.225057 -1.485,0.712708 -2.938,1.495998 -4.404,2.225061 -2.214,1.100047 -4.474,2.138983 -6.655,3.297561 -0.72,0.381317 -1.435,0.809975 -2.25,1.029467 -0.862,-0.18248 -1.541,-0.705821 -2.299,-1.070783 -6.711,-3.233866 -13.35,-6.600292 -19.965,-9.973601 -2.904,-1.481363 -5.7520017,-3.070323 -8.7140017,-4.533612 -0.737,-0.36496 -1.524,-0.683441 -2.251,-1.071642 -0.702,-0.377012 -1.50199998,-0.679138 -2.059,-1.23691 -0.086,-12.020483 -0.073,-23.525372 -0.094,-35.275575 0.531,-0.583593 1.379,-0.854732 2.107,-1.195593 5.162,-2.412703 10.2150017,-5.146471 15.3690017,-7.706364 5.403,-2.684705 10.975,-5.471838 16.47,-8.2426173 0.428,-0.2160507 0.798,-0.4338223 1.197,-0.5353919 z m -1.819,6.1819622 c 0,-0.735086 0.095,-1.486527 -0.575,-1.195592 -2.324,1.013112 -4.518,2.231946 -6.799,3.379336 -2.248,1.131897 -4.527,2.250881 -6.798,3.380196 -2.283,1.133618 -4.541,2.287894 -6.799,3.379335 -1.721,0.831491 -3.3550017,1.790376 -5.0270017,2.596045 -0.543,0.262532 -1.249,0.44415 -1.58,0.948555 0.43,0.488049 1.136,0.692049 1.723,0.98901 1.856,0.940809 3.6200017,1.910021 5.4590017,2.843945 4.916,2.495336 9.832,4.879637 14.795,7.376694 1.643,0.827189 3.637,1.949616 5.506,2.801767 0.558,0.254784 1.496,0.824605 1.963,0.824605 0.506,0 1.333,-0.603391 1.915,-0.865061 0.718,-0.323645 1.314,-0.648151 1.867,-0.907238 4.498,-2.107137 8.727,-4.358878 12.976,-6.470317 3.735,-1.856654 7.47,-3.603132 11.155,-5.522622 0.311,-0.161823 1.728,-0.727341 1.724,-1.071643 -0.007,-0.519899 -1.228,-0.592204 -1.58,-0.948555 -7.501,-3.693513 -14.942,-7.536796 -22.455,-11.168333 -1.086,-0.524202 -2.114,-1.163745 -3.304,-1.524402 -0.333,1.01053 -0.191,2.155337 -0.191,3.296702 0,2.911083 -0.063,5.932343 0.096,8.695376 2.006,0.811694 3.49,1.505464 4.597,3.008349 1.44,1.957363 1.557,4.66789 0.431,6.676898 -1.054,1.878173 -3.153,3.255385 -5.554,3.709004 -3.89,0.734227 -7.216,-1.218833 -8.57,-3.379334 -1.086,-1.730984 -1.266,-4.382119 -0.143,-6.346367 0.773,-1.355694 2.029,-2.400654 3.639,-3.090982 0.468,-0.201417 1.065,-0.258227 1.437,-0.618884 0.193,-3.499842 0.092,-7.072848 0.092,-10.796487 z M 4.2154173,29.816831 c -0.245,0.739393 -0.145,2.250021 -0.145,3.297564 0.001,6.878315 -0.168,13.686048 0.049,20.399098 0.035,1.115542 -0.145,2.228501 0.144,3.296702 1.084,-0.221215 2.01,-0.803085 2.967,-1.276503 1.954,-0.965771 3.8710017,-1.952199 5.7940017,-2.88526 0.963,-0.468252 1.981,-0.911543 2.825,-1.524403 -0.943,-4.476801 2.263,-7.878514 6.463,-8.489653 3.33,-0.483746 5.73,0.895187 7.326,2.390324 1.215,1.309212 2.026,2.923994 1.771,5.027686 -0.243,2.007286 -1.322,3.468854 -2.585,4.409661 -1.44,1.071645 -3.138,1.862682 -5.649,1.772301 -1.941,-0.07058 -3.122,-0.616302 -4.262,-1.318681 -0.288,-0.177316 -0.856,-0.652454 -1.196,-0.659339 -0.373,-0.0086 -1.03,0.457061 -1.437,0.659339 -2.481,1.235189 -4.751,2.383439 -7.0870017,3.544602 -0.956,0.475998 -2.051,0.815137 -2.729,1.524401 0.381,0.470835 1.034,0.667088 1.58,0.947695 1.695,0.868504 3.3010017,1.793819 4.9790017,2.637361 5.634,2.835337 11.292,5.778268 16.948,8.530972 1.158,0.562934 2.255,1.260149 3.543,1.607035 0.28,-0.528507 0.113,-1.125872 0.145,-1.689668 0.033,-0.598227 0.048,-1.203341 0.048,-1.812756 -0.001,-7.307834 -0.048,-14.659568 -0.048,-22.048311 0,-0.954581 0.256,-2.905919 -0.096,-3.627234 -0.188,-0.383038 -1.128,-0.698074 -1.724,-0.988151 -1.889,-0.921009 -3.718,-1.881614 -5.459,-2.76131 -7.404,-3.745156 -14.66,-7.344847 -21.9280017,-11.045245 -0.032,0 -0.063,0 -0.097,0 -0.053,0.01979 -0.105,0.0439 -0.14,0.08177 z M 67.079419,53.802709 c -0.154,-5.551889 0,-11.519522 0,-17.268524 0,-1.859236 0.129,-4.112701 0,-6.058013 -0.046,-0.698937 -0.172,-0.61286 -0.527,-0.536253 -0.534,0.116203 -1.244,0.581874 -1.818,0.865923 -4.851,2.402375 -9.711,4.803889 -14.412,7.170974 -3.015,1.518375 -5.999,3.105613 -9.001,4.533611 -1.214,0.577567 -2.441,1.135339 -3.543,1.854072 -0.131,9.150715 0,18.437432 0,27.529617 0,0.563795 -0.113,1.190427 0.144,1.730983 0.663,-0.05336 1.263,-0.397669 1.819,-0.6602 0.576,-0.270279 1.118,-0.590481 1.676,-0.865062 3.413,-1.683643 6.875,-3.319943 10.15,-5.111181 4.022,-1.955641 7.926,-3.87513 11.922,-5.893608 0.457,-0.230683 1.61,-0.607695 1.58,-0.988149 -0.022,-0.266836 -0.961,-0.659341 -1.341,-0.824606 -0.583,-0.254786 -1.048,-0.541418 -1.484,-0.741113 -2.649,-1.217112 -4.828,-2.309413 -7.373,-3.627234 -0.454,-0.234987 -1.163,-0.674834 -1.58,-0.65934 -0.47,0.01807 -1.116,0.639543 -1.437,0.823745 -1.479,0.85215 -3.393,1.464149 -5.841,1.030327 -2.584,-0.457062 -4.457,-1.706882 -5.554,-3.585056 -1.283,-2.195793 -0.85,-4.867586 0.383,-6.635583 1.137,-1.630274 3.232,-3.060854 5.889,-3.296702 1.544,-0.13686 2.99,0.129114 4.022,0.535392 2.91,1.144808 5.283,3.846726 4.404,8.036895 0.759,0.729923 1.865,1.09058 2.825,1.565718 1.981,0.982987 3.917,1.949617 5.889,2.925716 0.989,0.489772 1.963,1.103492 3.112,1.359998 0.182,-0.972656 0.126,-2.111438 0.096,-3.212347 z"
   id="path12876"
   inkscape:transform-center-x="2.0034813"
   inkscape:transform-center-y="12.278526"
   inkscape:export-filename=".\path12876.png"
   inkscape:export-xdpi="346.79999"
   inkscape:export-ydpi="346.79999" />
</g>
<g
   id="Layer_1">
</g>
</svg>
