<?xml version="1.0" standalone="no"?><!DOCTYPE svg PUBLIC "-//W3C//DTD SVG 1.1//EN" "http://www.w3.org/Graphics/SVG/1.1/DTD/svg11.dtd"><svg t="1723120644868" class="icon" viewBox="0 0 1024 1024" version="1.1" xmlns="http://www.w3.org/2000/svg" p-id="1868" xmlns:xlink="http://www.w3.org/1999/xlink" width="128" height="128"><path d="M512 69.818182C267.636364 69.818182 69.818182 267.636364 69.818182 512s197.818182 442.181818 442.181818 442.181818 442.181818-197.818182 442.181818-442.181818S756.363636 69.818182 512 69.818182z m0 837.818182c-218.763636 0-395.636364-176.872727-395.636364-395.636364S293.236364 116.363636 512 116.363636s395.636364 176.872727 395.636364 395.636364-176.872727 395.636364-395.636364 395.636364z" p-id="1869" fill="#8a8a8a"></path><path d="M721.454545 488.727273H302.545455c-13.963636 0-23.272727 11.636364-23.272728 23.272727 0 13.963636 11.636364 23.272727 23.272728 23.272727h418.90909c13.963636 0 23.272727-9.309091 23.272728-23.272727s-11.636364-23.272727-23.272728-23.272727z" p-id="1870" fill="#8a8a8a"></path></svg>